<?xml version="1.0" encoding="utf-8"?>
<!-- Generator: Adobe Illustrator 27.5.0, SVG Export Plug-In . SVG Version: 6.00 Build 0)  -->
<svg version="1.1" xmlns="http://www.w3.org/2000/svg" xmlns:xlink="http://www.w3.org/1999/xlink" x="0px" y="0px"
	 viewBox="0 0 2200 2200" style="enable-background:new 0 0 2200 2200;" xml:space="preserve">
<g id="background">
	<rect style="fill:#FFFFFF;" width="2200" height="2200"/>
</g>
<g id="Objects">
	<g>
		<g>
			<g>
				<linearGradient id="SVGID_1_" gradientUnits="userSpaceOnUse" x1="740.3956" y1="787.959" x2="1531.1127" y2="1578.6761">
					<stop  offset="0" style="stop-color:#70E2F0"/>
					<stop  offset="0.9972" style="stop-color:#555DE7"/>
				</linearGradient>
				<path style="fill:url(#SVGID_1_);" d="M1673.422,1228.078c0,316.687-256.734,573.422-573.422,573.422
					s-573.421-256.734-573.421-573.422C526.579,801.616,1100,256.5,1100,256.5S1673.422,801.616,1673.422,1228.078z"/>
			</g>
			<g>
				
					<linearGradient id="SVGID_00000137825663616913134910000005769308752526334386_" gradientUnits="userSpaceOnUse" x1="654.4495" y1="702.0125" x2="1545.7262" y2="1593.2891">
					<stop  offset="0" style="stop-color:#70E2F0"/>
					<stop  offset="0.849" style="stop-color:#555DE7"/>
					<stop  offset="1" style="stop-color:#444AB8"/>
				</linearGradient>
				<path style="fill:url(#SVGID_00000137825663616913134910000005769308752526334386_);" d="M1673.42,1228.08
					c0,316.687-256.733,573.42-573.42,573.42c-267.131,0-491.603-182.67-555.306-429.908
					c93.575,166.839,272.145,279.594,477.047,279.594c301.865,0,546.591-244.717,546.591-546.582
					c0-310.322-318.514-686.536-469.265-847.21c0.618-0.599,0.932-0.894,0.932-0.894S1673.42,801.617,1673.42,1228.08z"/>
			</g>
			<path style="opacity:0.31;fill:#FFFFFF;" d="M1008.603,616.274c-25.982,37.445-52.049,74.843-78.097,112.231
				c-15.916,22.852-34.563,47.539-61.914,52.762c-0.552,0.105-1.113,0.2-1.665,0.295c-38.387,6.06-64.207-38.492-40.632-69.382
				c66.728-87.43,149.829-199.147,206.064-271.012c3.748-4.785,7.953-9.894,13.88-11.312c13.519-3.235,22.604,13.871,24.031,27.703
				C1076.188,515.307,1041.701,568.592,1008.603,616.274z"/>
			<g style="opacity:0.31;">
				<path style="fill:#FFFFFF;" d="M797.142,890.123c-2.921,4.11-5.946,8.134-9.076,12.073c-9,11.321-19.883,22.538-34.068,25.335
					c-15.07,2.978-31.157-4.947-39.71-17.695c-8.553-12.767-10.065-29.464-5.975-44.267c4.1-14.813,13.338-27.808,24.545-38.33
					c10.512-9.894,24.526-18.19,38.701-15.44c11.169,2.169,19.997,10.807,26.381,20.216c0.076,0.105,0.143,0.209,0.219,0.314
					C809.928,849.852,809.357,872.903,797.142,890.123z"/>
			</g>
		</g>
		<ellipse style="fill:#D4D6E8;" cx="1100" cy="1904.5" rx="271" ry="39"/>
	</g>
</g>
</svg>
